<?xml version="1.0" encoding="utf-8"?>
<!-- Generator: Adobe Illustrator 22.1.0, SVG Export Plug-In . SVG Version: 6.00 Build 0)  -->
<svg version="1.1" id="Layer_1" xmlns="http://www.w3.org/2000/svg" xmlns:xlink="http://www.w3.org/1999/xlink" x="0px" y="0px"
	 viewBox="0 0 189.7 190" style="enable-background:new 0 0 189.7 190;" xml:space="preserve">
<style type="text/css">
	.st0{fill:#0095D6;}
	.st1{fill:#FFFFFF;}
</style>
<path class="st0" d="M167,41.4c-7.3-5.7-16-8.6-26.1-8.6c-8.4,0-15.4,2.6-21,7.9c-5.5,5.2-8.3,11.8-8.3,19.6
	c0,6.7,2.3,12.5,6.9,17.5c4.6,5,13.4,10.8,26.5,17.5l4.5,2.3c16.7,8.3,28.8,14.7,36.4,19.3c1.7-7,2.6-14.4,2.6-22
	c0-12.6-2.5-24.6-7-35.6C177.4,51.8,172.6,45.8,167,41.4z"/>
<path class="st1" d="M52.6,80.3c0,10.5,1.9,19.6,5.6,27.4c3.7,7.8,10.1,15.6,19.2,23.5c4.4,3.8,17.4,11.5,39.1,23l9.5,5.2
	c8.8,4.8,15.4,9.6,19.9,14.2c19.8-12.9,34.4-33,40.1-56.7c-7.6-4.6-19.8-11-36.4-19.3l-4.5-2.3c-13.1-6.7-21.9-12.5-26.5-17.5
	c-4.6-5-6.9-10.8-6.9-17.5c0-7.9,2.8-14.4,8.3-19.6c5.5-5.2,12.5-7.9,21-7.9c10.1,0,18.8,2.9,26.1,8.6c5.6,4.3,10.4,10.3,14.5,18
	c-11.3-27.6-35.4-48.6-64.9-55.6C100.5,6.7,86.9,13.5,75.7,24C60.3,38.6,52.6,57.4,52.6,80.3z"/>
<path class="st0" d="M125.9,159.4l-9.5-5.2c-21.6-11.5-34.7-19.2-39.1-23c-9-7.9-15.4-15.7-19.2-23.5c-3.7-7.8-5.6-16.9-5.6-27.4
	c0-23,7.7-41.7,23.1-56.3c11.2-10.6,24.8-17.3,40.9-20.2c-7-1.7-14.3-2.5-21.7-2.5C43.1,1.3,1.2,43.2,1.2,95
	c0,46,33.1,84.3,76.8,92.2c1.2,0.2,2.4,0.4,3.6,0.6c4.3,0.6,8.8,0.9,13.3,0.9c18.8,0,36.3-5.5,51-15.1
	C141.3,169,134.7,164.2,125.9,159.4z"/>
</svg>
