<?xml version="1.0" encoding="utf-8"?>
<!-- Generator: Adobe Illustrator 22.1.0, SVG Export Plug-In . SVG Version: 6.00 Build 0)  -->
<svg version="1.1" id="Layer_1" xmlns="http://www.w3.org/2000/svg" xmlns:xlink="http://www.w3.org/1999/xlink" x="0px" y="0px"
	 viewBox="0 0 190 190" style="enable-background:new 0 0 190 190;" xml:space="preserve">
<style type="text/css">
	.st0{fill:#0095D8;}
	.st1{fill:#FFFFFF;}
</style>
<g>
	<path class="st0" d="M89.7,57.3c0,16.6,9.8,23.3,50.4,36.1c19.2,6.2,35.2,13,47.6,22c1.4-6.6,2.2-13.4,2.2-20.4
		c0-15.4-3.7-30-10.2-42.8c-17.1-13.7-34.7-20.4-55.1-20.4C103.3,31.7,89.7,40.8,89.7,57.3z"/>
	<path class="st0" d="M105.9,142.7c-58.3-18.1-79.8-42.1-79.8-80.9c0-18.9,6.8-35,18.6-47.4C17.9,31.2,0,61,0,95
		c0,52.5,42.5,95,95,95c21.4,0,41.2-7.1,57.1-19.1C148,159.1,135.5,151.8,105.9,142.7z"/>
	<path class="st1" d="M187.8,115.4c-12.4-8.9-28.4-15.8-47.6-22C99.5,80.7,89.7,73.9,89.7,57.3c0-16.6,13.5-25.6,35-25.6
		c20.4,0,37.9,6.7,55.1,20.4C164.1,21.2,132.1,0,95,0C76.5,0,59.3,5.3,44.7,14.4C32.9,26.8,26.1,42.9,26.1,61.8
		c0,38.8,21.4,62.8,79.8,80.9c29.6,9.1,42.1,16.4,46.2,28.2C169.9,157.5,182.8,138,187.8,115.4z"/>
</g>
</svg>
